<?xml version="1.0" encoding="UTF-8"?>
<svg xmlns="http://www.w3.org/2000/svg" viewBox="0 0 1586 699" width="1586" height="699">
  <title>Gooch logo white transparent</title>
  <path d="M 1411 618 L 1411 691 L 1425 691 L 1425 662 L 1426 661 L 1428 661 L 1429 660 L 1432 662 L 1435 669 L 1437 671 L 1437 673 L 1439 675 L 1439 677 L 1441 679 L 1441 680 L 1447 691 L 1463 691 L 1462 690 L 1459 683 L 1457 681 L 1453 672 L 1451 670 L 1451 668 L 1449 666 L 1449 665 L 1445 658 L 1445 657 L 1447 655 L 1448 655 L 1448 654 L 1451 651 L 1451 650 L 1454 645 L 1454 633 L 1453 632 L 1450 625 L 1444 620 L 1443 620 L 1442 619 L 1440 619 L 1439 618 L 1417 618 L 1416 617 L 1413 617 L 1412 618 Z M 1426 629 L 1434 629 L 1435 630 L 1436 630 L 1437 631 L 1437 632 L 1439 634 L 1439 636 L 1440 637 L 1440 641 L 1439 642 L 1439 644 L 1438 645 L 1438 646 L 1436 648 L 1435 648 L 1434 649 L 1426 649 L 1425 648 L 1425 630 Z M 1360 617 L 1358 619 L 1358 691 L 1396 691 L 1396 680 L 1375 680 L 1373 678 L 1373 662 L 1375 660 L 1390 660 L 1390 649 L 1389 648 L 1374 648 L 1373 647 L 1373 631 L 1375 629 L 1394 629 L 1394 618 L 1361 618 Z M 1241 617 L 1239 620 L 1239 623 L 1238 624 L 1238 626 L 1237 627 L 1237 629 L 1236 630 L 1236 633 L 1234 636 L 1234 639 L 1233 640 L 1233 642 L 1232 643 L 1232 645 L 1231 646 L 1231 649 L 1229 652 L 1229 655 L 1228 656 L 1228 659 L 1226 662 L 1226 665 L 1225 666 L 1225 668 L 1224 669 L 1224 672 L 1223 673 L 1223 675 L 1221 678 L 1221 681 L 1220 682 L 1220 684 L 1219 685 L 1219 687 L 1218 688 L 1218 691 L 1231 691 L 1231 689 L 1232 688 L 1232 686 L 1233 685 L 1233 682 L 1234 681 L 1234 679 L 1235 678 L 1235 677 L 1237 675 L 1254 675 L 1256 677 L 1256 678 L 1257 679 L 1257 682 L 1258 683 L 1258 685 L 1259 686 L 1259 690 L 1260 691 L 1274 691 L 1274 689 L 1273 688 L 1273 686 L 1272 685 L 1272 683 L 1271 682 L 1271 679 L 1269 676 L 1269 672 L 1267 669 L 1267 667 L 1266 666 L 1266 663 L 1264 660 L 1264 657 L 1263 656 L 1263 654 L 1262 653 L 1262 650 L 1261 649 L 1261 647 L 1259 644 L 1259 641 L 1258 640 L 1258 637 L 1256 634 L 1256 630 L 1254 627 L 1254 625 L 1253 624 L 1253 621 L 1252 620 L 1251 617 Z M 1246 642 L 1247 643 L 1247 646 L 1248 647 L 1248 649 L 1249 650 L 1249 653 L 1250 654 L 1250 656 L 1251 657 L 1251 660 L 1252 661 L 1252 663 L 1251 664 L 1240 664 L 1239 663 L 1239 660 L 1240 659 L 1240 657 L 1241 656 L 1241 653 L 1242 652 L 1242 650 L 1243 649 L 1243 646 L 1244 645 L 1244 644 Z M 1169 618 L 1169 691 L 1208 691 L 1208 680 L 1207 679 L 1185 679 L 1184 678 L 1184 677 L 1183 676 L 1183 617 L 1182 617 L 1181 618 L 1180 617 L 1179 618 Z M 1023 617 L 1022 618 L 1022 629 L 1038 629 L 1040 631 L 1040 691 L 1054 691 L 1054 631 L 1056 629 L 1072 629 L 1072 618 L 1071 618 L 1070 617 L 1069 618 L 1025 618 L 1024 617 Z M 975 617 L 974 618 L 974 691 L 1011 691 L 1011 680 L 992 680 L 991 679 L 989 679 L 988 678 L 988 662 L 990 660 L 1005 660 L 1005 649 L 1004 648 L 989 648 L 988 647 L 988 631 L 990 629 L 1009 629 L 1009 618 L 1008 617 L 1007 618 L 1005 618 L 1004 617 L 1003 618 L 977 618 L 976 617 Z M 922 617 L 922 618 L 921 619 L 921 691 L 959 691 L 959 680 L 939 680 L 936 678 L 936 661 L 937 660 L 952 660 L 952 648 L 937 648 L 936 647 L 936 631 L 938 629 L 956 629 L 957 628 L 956 627 L 956 620 L 957 619 L 955 617 L 954 617 L 953 618 L 952 617 L 951 617 L 950 618 L 924 618 L 923 617 Z M 835 618 L 835 629 L 834 630 L 834 642 L 833 643 L 833 657 L 832 658 L 832 667 L 831 668 L 830 691 L 843 691 L 844 690 L 846 655 L 848 653 L 863 691 L 868 691 L 869 692 L 871 691 L 873 684 L 876 679 L 876 677 L 879 672 L 884 657 L 886 654 L 888 655 L 890 691 L 904 691 L 902 658 L 901 657 L 901 642 L 900 641 L 900 631 L 899 630 L 899 618 L 897 617 L 896 618 L 894 617 L 889 618 L 888 617 L 886 619 L 868 665 L 864 661 L 863 656 L 856 641 L 848 619 L 845 617 L 844 618 L 840 617 L 839 618 L 837 617 Z M 731 618 L 731 691 L 746 691 L 745 690 L 746 689 L 745 688 L 746 687 L 745 686 L 746 684 L 746 664 L 745 663 L 748 660 L 750 661 L 751 660 L 752 661 L 753 660 L 761 660 L 762 661 L 763 660 L 764 661 L 765 660 L 767 660 L 769 662 L 769 691 L 784 691 L 784 619 L 783 617 L 782 618 L 780 617 L 778 618 L 777 617 L 776 618 L 772 618 L 771 617 L 769 618 L 769 647 L 768 648 L 747 648 L 746 647 L 746 619 L 745 617 L 744 618 L 737 618 L 736 617 L 733 617 Z M 621 617 L 621 618 L 620 619 L 620 622 L 618 625 L 618 628 L 617 629 L 617 631 L 616 632 L 616 634 L 615 635 L 615 638 L 613 641 L 613 644 L 612 645 L 612 647 L 611 648 L 611 650 L 610 651 L 610 654 L 608 657 L 608 660 L 607 661 L 607 663 L 606 664 L 606 666 L 605 667 L 605 670 L 603 673 L 603 676 L 602 677 L 602 680 L 600 683 L 600 686 L 599 687 L 599 689 L 598 690 L 598 691 L 611 691 L 612 690 L 612 687 L 613 686 L 613 684 L 614 683 L 614 681 L 615 680 L 615 677 L 617 675 L 635 675 L 636 676 L 636 677 L 637 678 L 637 680 L 638 681 L 638 684 L 639 685 L 639 687 L 640 688 L 640 691 L 655 691 L 654 690 L 654 688 L 653 687 L 653 684 L 651 681 L 651 678 L 650 677 L 650 675 L 649 674 L 649 672 L 648 671 L 648 668 L 647 667 L 647 665 L 646 664 L 646 662 L 645 661 L 645 658 L 643 655 L 643 652 L 642 651 L 642 649 L 641 648 L 641 646 L 640 645 L 640 642 L 638 639 L 638 636 L 637 635 L 637 633 L 636 632 L 636 630 L 635 629 L 635 626 L 634 625 L 634 623 L 633 622 L 633 620 L 632 619 L 632 617 Z M 625 643 L 626 643 L 628 645 L 628 648 L 629 649 L 629 651 L 630 652 L 630 655 L 631 656 L 631 658 L 632 659 L 632 663 L 631 664 L 621 664 L 620 663 L 620 658 L 621 657 L 621 655 L 622 654 L 622 651 L 623 650 L 623 647 L 624 646 L 624 644 Z M 551 617 L 550 618 L 550 691 L 587 691 L 587 680 L 567 680 L 564 678 L 564 662 L 566 660 L 581 660 L 581 649 L 580 648 L 565 648 L 564 647 L 564 631 L 567 629 L 585 629 L 585 618 L 584 618 L 583 617 L 582 618 L 581 618 L 580 617 L 579 618 L 578 617 L 577 618 L 559 618 L 558 617 L 557 618 L 556 618 L 555 617 L 552 618 Z M 493 617 L 492 618 L 492 691 L 506 691 L 506 662 L 507 661 L 515 661 L 516 660 L 521 660 L 522 659 L 525 658 L 527 656 L 528 656 L 529 655 L 529 654 L 530 653 L 531 653 L 531 652 L 532 651 L 532 650 L 534 647 L 534 643 L 535 642 L 535 636 L 534 635 L 534 631 L 533 630 L 533 629 L 532 628 L 531 625 L 530 625 L 528 622 L 527 622 L 525 620 L 524 620 L 523 619 L 521 619 L 520 618 L 515 618 L 514 617 L 513 617 L 512 618 L 497 618 L 496 617 L 495 618 L 494 617 Z M 507 629 L 515 629 L 517 631 L 518 631 L 519 632 L 519 633 L 520 634 L 520 635 L 521 636 L 521 643 L 519 645 L 519 646 L 517 648 L 515 648 L 514 649 L 507 649 L 506 648 L 506 630 Z M 412 617 L 411 618 L 411 691 L 448 691 L 448 680 L 428 680 L 425 678 L 425 662 L 427 660 L 442 660 L 442 649 L 441 648 L 426 648 L 425 647 L 425 631 L 428 629 L 446 629 L 446 618 L 445 617 L 444 617 L 443 618 L 416 618 L 415 617 L 414 618 L 413 617 Z M 348 617 L 347 618 L 347 691 L 361 691 L 361 662 L 362 661 L 366 661 L 369 664 L 369 666 L 371 668 L 377 681 L 380 685 L 380 687 L 383 691 L 399 691 L 397 689 L 397 687 L 395 685 L 395 684 L 394 683 L 392 678 L 390 676 L 386 667 L 384 665 L 384 663 L 381 659 L 381 657 L 386 652 L 387 649 L 389 647 L 389 644 L 390 643 L 390 635 L 389 634 L 389 631 L 388 630 L 387 627 L 384 624 L 384 623 L 383 623 L 380 620 L 379 620 L 378 619 L 376 619 L 375 618 L 349 618 Z M 362 629 L 369 629 L 370 630 L 371 630 L 375 634 L 375 637 L 376 638 L 376 640 L 375 641 L 375 644 L 371 648 L 370 648 L 369 649 L 362 649 L 361 648 L 361 630 Z M 295 617 L 294 618 L 294 691 L 332 691 L 332 680 L 311 680 L 308 677 L 308 663 L 311 660 L 326 660 L 326 650 L 325 649 L 325 648 L 310 648 L 308 646 L 308 632 L 311 629 L 329 629 L 329 617 L 328 618 L 296 618 Z M 224 617 L 223 618 L 223 691 L 238 691 L 238 662 L 240 660 L 242 661 L 243 660 L 258 660 L 261 662 L 261 691 L 275 691 L 275 618 L 274 617 L 273 618 L 271 618 L 270 617 L 269 618 L 266 618 L 265 617 L 264 618 L 262 617 L 261 618 L 261 647 L 260 648 L 239 648 L 238 647 L 238 621 L 237 620 L 238 619 L 235 617 L 233 617 L 232 618 L 225 618 Z M 123 617 L 126 633 L 129 640 L 129 644 L 131 647 L 131 651 L 134 658 L 134 662 L 141 684 L 142 691 L 143 692 L 152 692 L 153 691 L 164 647 L 166 645 L 168 648 L 169 656 L 171 660 L 179 691 L 180 692 L 189 692 L 209 618 L 208 617 L 207 618 L 205 617 L 203 618 L 202 617 L 201 618 L 197 617 L 196 618 L 189 648 L 187 652 L 187 657 L 184 662 L 182 657 L 181 648 L 179 644 L 179 639 L 174 624 L 174 620 L 172 617 L 171 618 L 170 617 L 169 618 L 165 617 L 162 618 L 161 617 L 159 619 L 156 634 L 154 638 L 154 642 L 151 650 L 150 658 L 148 661 L 146 660 L 146 654 L 144 650 L 143 642 L 141 638 L 141 634 L 136 617 L 135 618 L 128 618 L 127 617 L 124 618 Z M 1310 617 L 1309 618 L 1305 619 L 1303 621 L 1299 623 L 1297 625 L 1297 626 L 1295 627 L 1292 633 L 1290 635 L 1290 637 L 1287 644 L 1287 665 L 1288 666 L 1290 674 L 1292 676 L 1293 679 L 1299 686 L 1300 686 L 1305 690 L 1307 690 L 1314 693 L 1326 693 L 1327 692 L 1335 690 L 1339 688 L 1341 686 L 1341 653 L 1318 653 L 1318 663 L 1319 664 L 1320 663 L 1322 664 L 1324 664 L 1325 663 L 1328 665 L 1328 677 L 1325 680 L 1323 680 L 1322 681 L 1318 681 L 1311 678 L 1304 670 L 1304 668 L 1302 665 L 1301 651 L 1302 650 L 1302 645 L 1304 642 L 1305 638 L 1314 630 L 1316 630 L 1317 629 L 1326 629 L 1327 630 L 1330 630 L 1334 633 L 1336 633 L 1336 629 L 1337 628 L 1337 621 L 1332 618 L 1330 618 L 1329 617 L 1324 617 L 1323 616 Z M 1115 617 L 1111 617 L 1110 616 L 1102 616 L 1101 617 L 1098 617 L 1097 618 L 1095 618 L 1089 623 L 1089 624 L 1087 626 L 1087 628 L 1086 629 L 1086 632 L 1085 633 L 1085 640 L 1086 641 L 1086 644 L 1087 645 L 1089 650 L 1096 657 L 1097 657 L 1103 662 L 1104 662 L 1109 668 L 1109 676 L 1106 679 L 1105 679 L 1104 680 L 1095 680 L 1094 679 L 1089 678 L 1084 674 L 1084 684 L 1085 685 L 1085 688 L 1090 691 L 1092 691 L 1093 692 L 1095 692 L 1096 693 L 1107 693 L 1108 692 L 1110 692 L 1111 691 L 1113 691 L 1114 690 L 1117 689 L 1122 683 L 1122 681 L 1124 678 L 1124 665 L 1122 662 L 1122 660 L 1120 658 L 1120 657 L 1111 648 L 1110 648 L 1107 645 L 1106 645 L 1100 639 L 1100 638 L 1099 637 L 1099 634 L 1100 633 L 1100 632 L 1103 629 L 1105 629 L 1106 628 L 1110 628 L 1111 629 L 1114 629 L 1117 631 L 1119 631 L 1119 619 L 1118 618 L 1116 618 Z M 690 617 L 689 618 L 682 621 L 674 629 L 673 632 L 671 634 L 671 636 L 669 639 L 669 642 L 668 643 L 668 648 L 667 649 L 667 660 L 668 661 L 668 666 L 669 667 L 669 670 L 671 673 L 671 675 L 673 677 L 674 680 L 682 688 L 683 688 L 688 691 L 693 692 L 694 693 L 706 693 L 707 692 L 712 691 L 714 689 L 714 679 L 715 678 L 714 677 L 713 678 L 711 678 L 710 679 L 708 679 L 707 680 L 698 680 L 695 678 L 693 678 L 686 671 L 686 670 L 684 667 L 684 665 L 683 664 L 683 661 L 682 660 L 682 650 L 683 649 L 683 644 L 684 643 L 686 638 L 693 631 L 694 631 L 697 629 L 707 629 L 708 630 L 710 630 L 711 631 L 714 632 L 714 626 L 715 625 L 715 620 L 712 618 L 710 618 L 709 617 L 705 617 L 704 616 L 696 616 L 695 617 Z M 1297 11 L 1296 560 L 1399 561 L 1399 327 L 1474 325 L 1475 560 L 1580 561 L 1580 12 L 1477 12 L 1475 239 L 1400 240 L 1399 12 Z M 1110 6 L 1065 14 L 1033 30 L 1008 53 L 988 88 L 980 118 L 975 184 L 975 395 L 983 471 L 1008 521 L 1031 542 L 1056 556 L 1093 566 L 1130 567 L 1163 561 L 1195 548 L 1220 531 L 1241 508 L 1258 465 L 1259 388 L 1157 388 L 1156 449 L 1148 468 L 1133 480 L 1109 483 L 1087 467 L 1079 431 L 1077 209 L 1084 116 L 1099 95 L 1111 90 L 1141 98 L 1155 118 L 1157 185 L 1259 185 L 1259 116 L 1243 69 L 1209 34 L 1158 11 Z M 784 5 L 746 12 L 710 31 L 686 55 L 666 91 L 656 131 L 653 177 L 653 356 L 663 469 L 671 496 L 684 517 L 708 541 L 741 559 L 772 567 L 810 568 L 852 558 L 887 538 L 912 512 L 929 478 L 937 426 L 941 343 L 939 149 L 934 113 L 927 90 L 912 62 L 893 40 L 868 22 L 845 12 L 817 6 Z M 791 89 L 804 90 L 814 95 L 824 105 L 831 118 L 835 144 L 838 204 L 838 368 L 833 448 L 828 463 L 821 473 L 814 479 L 802 484 L 785 483 L 774 476 L 764 463 L 757 435 L 754 384 L 753 237 L 757 139 L 760 120 L 767 104 L 776 95 Z M 461 5 L 419 14 L 381 37 L 354 68 L 339 101 L 332 153 L 329 224 L 331 397 L 334 447 L 339 472 L 349 497 L 364 519 L 381 536 L 409 554 L 445 566 L 480 569 L 525 561 L 561 542 L 586 518 L 605 484 L 612 449 L 617 372 L 617 169 L 615 131 L 608 98 L 597 73 L 584 54 L 559 31 L 527 14 L 501 7 Z M 469 90 L 479 90 L 494 96 L 504 107 L 511 126 L 514 154 L 517 226 L 517 344 L 514 418 L 511 446 L 506 461 L 501 469 L 489 480 L 477 484 L 463 483 L 455 479 L 447 472 L 440 461 L 435 434 L 432 373 L 432 196 L 437 123 L 445 104 L 454 95 Z M 146 5 L 105 11 L 65 31 L 37 60 L 20 93 L 7 175 L 7 378 L 17 473 L 41 521 L 69 546 L 101 561 L 166 567 L 202 559 L 241 539 L 267 515 L 283 488 L 291 457 L 291 256 L 151 256 L 151 339 L 188 342 L 188 449 L 180 468 L 163 481 L 141 483 L 128 476 L 115 455 L 110 396 L 108 248 L 115 117 L 134 93 L 164 93 L 187 119 L 189 185 L 291 185 L 291 116 L 278 75 L 248 40 L 201 14 Z" fill="#FFFFFF" fill-rule="evenodd"/>
</svg>
